<svg width="103" height="153" viewBox="0 0 103 153" fill="none" xmlns="http://www.w3.org/2000/svg">
<path d="M85.25 0C94.915 0 102.75 7.83502 102.75 17.5V135.4C102.75 145.065 94.9149 152.9 85.25 152.9H17.5C7.83515 152.9 0.000214405 145.065 0 135.4V17.5C0 7.83502 7.83502 5.15406e-07 17.5 0H85.25ZM17.5 5C10.5964 5 5 10.5964 5 17.5V135.4C5.00021 142.304 10.5966 147.9 17.5 147.9H85.25C92.1534 147.9 97.7498 142.304 97.75 135.4V17.5C97.75 10.5964 92.1536 5 85.25 5H17.5ZM83.4746 13.125C87.3406 13.125 90.4746 16.259 90.4746 20.125V132.775C90.4744 136.641 87.3405 139.775 83.4746 139.775H19.2754C15.4095 139.775 12.2756 136.641 12.2754 132.775V20.125C12.2754 16.259 15.4094 13.125 19.2754 13.125H83.4746Z" fill="#0B132B"/>
<path d="M53.2293 51.375L75.0836 89.9715H31.375L53.2293 51.375Z" fill="#0B132B"/>
<path d="M53.5207 101.375L31.6664 62.7785H75.375L53.5207 101.375Z" fill="#0B132B"/>
<path d="M53.2293 51.375L75.0836 89.9715H31.375L53.2293 51.375Z" stroke="#F9A825" stroke-width="4" stroke-linejoin="round"/>
<path d="M53.5207 101.375L31.6664 62.7785H75.375L53.5207 101.375Z" stroke="#F9A825" stroke-width="4" stroke-linejoin="round"/>
<mask id="path-3-inside-1_4183_192" fill="white">
<path d="M53.375 69.375C58.3415 69.375 62.5943 72.2678 64.373 76.375C62.5943 80.4821 58.3415 83.375 53.375 83.375C48.4084 83.375 44.1547 80.4823 42.376 76.375C44.1546 72.2676 48.4083 69.375 53.375 69.375Z"/>
</mask>
<path d="M53.375 69.375C58.3415 69.375 62.5943 72.2678 64.373 76.375C62.5943 80.4821 58.3415 83.375 53.375 83.375C48.4084 83.375 44.1547 80.4823 42.376 76.375C44.1546 72.2676 48.4083 69.375 53.375 69.375Z" fill="#0B132B"/>
<path d="M53.375 69.375V65.375V69.375ZM64.373 76.375L68.0436 77.9647L68.7321 76.375L68.0436 74.7854L64.373 76.375ZM53.375 83.375V87.375V83.375ZM42.376 76.375L38.7054 74.7855L38.017 76.375L38.7054 77.9646L42.376 76.375ZM53.375 69.375V73.375C56.7829 73.375 59.5716 75.3534 60.7025 77.9646L64.373 76.375L68.0436 74.7854C65.617 69.1822 59.9002 65.375 53.375 65.375V69.375ZM64.373 76.375L60.7025 74.7853C59.5716 77.3965 56.7827 79.375 53.375 79.375V83.375V87.375C59.9002 87.375 65.617 83.5676 68.0436 77.9647L64.373 76.375ZM53.375 83.375V79.375C49.9666 79.375 47.1772 77.3963 46.0466 74.7854L42.376 76.375L38.7054 77.9646C41.1321 83.5682 46.8502 87.375 53.375 87.375V83.375ZM42.376 76.375L46.0466 77.9645C47.1772 75.3537 49.9665 73.375 53.375 73.375V69.375V65.375C46.8502 65.375 41.132 69.1816 38.7054 74.7855L42.376 76.375Z" fill="#F9A825" mask="url(#path-3-inside-1_4183_192)"/>
<ellipse cx="53.3491" cy="76.3749" rx="3.40576" ry="3.31579" fill="#F9A825"/>
<path d="M79.3189 106.225C80.3247 106.682 80.7536 107.86 80.2763 108.856C77.9056 113.804 79.8937 119.626 84.7091 122.113L85.1846 122.343L85.4165 122.449L85.4173 122.45C85.8572 122.649 86.1864 122.987 86.3779 123.387C86.4053 123.444 86.4309 123.502 86.4526 123.562C86.5608 123.859 86.5957 124.183 86.5491 124.505C86.5305 124.634 86.4992 124.764 86.4535 124.891C86.4307 124.954 86.4041 125.017 86.3743 125.079C86.3445 125.141 86.3115 125.202 86.2762 125.259C86.1704 125.433 86.0415 125.586 85.895 125.716C85.6505 125.934 85.3575 126.088 85.0445 126.17C84.6065 126.284 84.1292 126.256 83.6892 126.056L83.4561 125.951C78.3063 123.614 72.1511 125.846 69.6961 130.938C69.6925 130.945 69.6899 130.953 69.6863 130.961C69.6046 131.131 69.4993 131.283 69.3799 131.419C68.8011 132.079 67.8339 132.317 66.9999 131.939C65.9941 131.482 65.5653 130.304 66.0424 129.308C66.0462 129.3 66.0498 129.292 66.0536 129.284C68.48 124.188 66.292 118.175 61.1575 115.831C61.1499 115.827 61.1418 115.824 61.1341 115.821L60.9014 115.714C59.8959 115.258 59.4676 114.081 59.9444 113.085C60.3022 112.338 61.0673 111.905 61.8517 111.927C62.1141 111.934 62.3786 111.993 62.6308 112.107L62.8639 112.213C62.8712 112.216 62.8787 112.22 62.886 112.223C68.0391 114.547 74.1901 112.303 76.6338 107.202C76.9506 106.542 77.5863 106.128 78.2723 106.057C78.4739 106.036 78.6795 106.044 78.883 106.085C78.965 106.102 79.0469 106.123 79.1276 106.15L79.3189 106.225ZM75.3084 114.597C73.3179 115.937 71.0186 116.773 68.6327 117.027C69.967 118.968 70.7874 121.219 71.0128 123.564C73.0028 122.225 75.3016 121.389 77.6865 121.136C76.352 119.195 75.5335 116.942 75.3084 114.597Z" fill="#F9A825"/>
<path d="M32.3125 27.1997C32.3711 27.2006 32.4297 27.2012 32.4883 27.2036C32.5114 27.2045 32.5345 27.2063 32.5576 27.2075C32.6149 27.2105 32.6723 27.2138 32.7295 27.2183C32.7757 27.2218 32.8219 27.2264 32.8682 27.231C32.9102 27.2351 32.9522 27.2397 32.9941 27.2446C33.1728 27.2656 33.3516 27.293 33.5293 27.3286C34.8996 27.6036 36.1596 28.3023 37.1738 29.3257C37.2087 29.3608 37.2412 29.3982 37.2754 29.4341C37.3078 29.4681 37.3393 29.503 37.3711 29.5376C37.4563 29.6303 37.5393 29.725 37.6201 29.8218C37.6451 29.8517 37.6707 29.8812 37.6953 29.9116C37.848 30.1001 37.9913 30.2962 38.127 30.4985C38.1388 30.5162 38.1514 30.5335 38.1631 30.5513C38.1724 30.5654 38.1812 30.58 38.1904 30.5942C38.4186 30.945 38.6207 31.3145 38.7959 31.6997C38.8042 31.718 38.8131 31.736 38.8213 31.7544C38.9089 31.9506 38.9921 32.1495 39.0654 32.353H39.9619C41.3566 32.3533 42.6655 32.9814 43.6094 34.0493C44.5498 35.1135 45.0604 36.5335 45.0605 37.9917C45.0605 39.4498 44.5497 40.8699 43.6094 41.9341C42.6655 43.002 41.3566 43.6301 39.9619 43.6304H24.4736C23.0788 43.6301 21.77 43.0022 20.8262 41.9341C19.8859 40.8698 19.375 39.4499 19.375 37.9917C19.3751 36.5335 19.8858 35.1135 20.8262 34.0493C21.77 32.9814 23.0789 32.3533 24.4736 32.353H25.3701C25.4436 32.1491 25.5274 31.95 25.6152 31.7534C25.6193 31.7444 25.6229 31.7351 25.627 31.7261C25.8714 31.1838 26.1697 30.6724 26.5176 30.2007C26.5488 30.1583 26.5793 30.1154 26.6113 30.0737C26.6543 30.0178 26.6978 29.9624 26.7422 29.9077C26.762 29.8833 26.7827 29.8596 26.8027 29.8354C26.9491 29.6593 27.1008 29.488 27.2617 29.3257C28.276 28.3022 29.5359 27.6036 30.9062 27.3286C31.261 27.2575 31.6184 27.2165 31.9756 27.2036C31.9847 27.2033 31.9938 27.2029 32.0029 27.2026C32.0681 27.2006 32.1332 27.1989 32.1982 27.1987H32.2363C32.2617 27.1988 32.2871 27.1994 32.3125 27.1997Z" fill="#0B132B"/>
<path d="M32.3125 27.1997L32.3423 25.1999L32.34 25.1999L32.3125 27.1997ZM32.4883 27.2036L32.4055 29.2019L32.4078 29.202L32.4883 27.2036ZM32.5576 27.2075L32.6613 25.2102L32.659 25.2101L32.5576 27.2075ZM32.7295 27.2183L32.5741 29.2122L32.5763 29.2124L32.7295 27.2183ZM32.8682 27.231L33.0653 25.2407L33.0632 25.2405L32.8682 27.231ZM32.9941 27.2446L32.7592 29.2308L32.7612 29.231L32.9941 27.2446ZM33.5293 27.3286L33.9227 25.3677L33.9225 25.3676L33.5293 27.3286ZM37.1738 29.3257L38.5945 27.9179L38.5944 27.9179L37.1738 29.3257ZM37.2754 29.4341L38.7231 28.0542L38.7227 28.0538L37.2754 29.4341ZM37.3711 29.5376L35.8987 30.8911L35.899 30.8915L37.3711 29.5376ZM37.6201 29.8218L39.1558 28.5405L39.1555 28.5401L37.6201 29.8218ZM37.6953 29.9116L36.1409 31.1702L36.1412 31.1705L37.6953 29.9116ZM38.127 30.4985L39.7883 29.3851L39.7881 29.3847L38.127 30.4985ZM38.1631 30.5513L39.8332 29.4509L39.8331 29.4508L38.1631 30.5513ZM38.1904 30.5942L36.5136 31.6843L36.5139 31.6847L38.1904 30.5942ZM38.7959 31.6997L40.6165 30.8718L40.6164 30.8715L38.7959 31.6997ZM38.8213 31.7544L36.995 32.5696L36.9951 32.5698L38.8213 31.7544ZM39.0654 32.353L37.1837 33.0307C37.4695 33.8241 38.2221 34.353 39.0654 34.353V32.353ZM39.9619 32.353L39.9623 30.353H39.9619V32.353ZM43.6094 34.0493L45.1081 32.7249L45.1079 32.7248L43.6094 34.0493ZM45.0605 37.9917L47.0605 37.9918V37.9916L45.0605 37.9917ZM43.6094 41.9341L45.1079 43.2586L45.1082 43.2583L43.6094 41.9341ZM39.9619 43.6304V45.6304H39.9623L39.9619 43.6304ZM24.4736 43.6304L24.4733 45.6304H24.4736V43.6304ZM20.8262 41.9341L19.3274 43.2583L19.3275 43.2585L20.8262 41.9341ZM19.375 37.9917L17.375 37.9915V37.9917H19.375ZM20.8262 34.0493L19.3276 32.7248L19.3275 32.7249L20.8262 34.0493ZM24.4736 32.353V30.353H24.4733L24.4736 32.353ZM25.3701 32.353V34.353C26.2134 34.353 26.9661 33.8241 27.2518 33.0307L25.3701 32.353ZM25.6152 31.7534L27.4413 32.5691L27.4414 32.569L25.6152 31.7534ZM25.627 31.7261L23.8037 30.9041L23.8036 30.9042L25.627 31.7261ZM26.5176 30.2007L28.1273 31.3876L28.1275 31.3873L26.5176 30.2007ZM26.6113 30.0737L25.0251 28.8555L25.025 28.8558L26.6113 30.0737ZM26.7422 29.9077L28.2956 31.1674L28.2958 31.1672L26.7422 29.9077ZM26.8027 29.8354L25.2643 28.5574L25.2641 28.5577L26.8027 29.8354ZM27.2617 29.3257L25.8411 27.9179L25.8411 27.9179L27.2617 29.3257ZM30.9062 27.3286L30.513 25.3677L30.5128 25.3677L30.9062 27.3286ZM31.9756 27.2036L32.0474 29.2023L32.0497 29.2022L31.9756 27.2036ZM32.0029 27.2026L31.9393 25.2036L31.9371 25.2037L32.0029 27.2026ZM32.1982 27.1987V25.1987L32.1936 25.1987L32.1982 27.1987ZM32.2363 27.1987L32.2409 25.1987H32.2363V27.1987ZM32.3125 27.1997L32.2827 29.1995C32.3553 29.2006 32.3804 29.2009 32.4055 29.2019L32.4883 27.2036L32.5711 25.2053C32.4791 25.2015 32.3869 25.2006 32.3423 25.1999L32.3125 27.1997ZM32.4883 27.2036L32.4078 29.202C32.4012 29.2017 32.3968 29.2015 32.3957 29.2014C32.3947 29.2014 32.3953 29.2014 32.3997 29.2017C32.4023 29.2018 32.4038 29.2019 32.4078 29.2022C32.411 29.2024 32.4153 29.2026 32.4199 29.2029C32.429 29.2035 32.4417 29.2042 32.4562 29.2049L32.5576 27.2075L32.659 25.2101C32.662 25.2102 32.6631 25.2103 32.6607 25.2102C32.6566 25.2099 32.6556 25.2099 32.6462 25.2093C32.6332 25.2085 32.6033 25.2066 32.5688 25.2052L32.4883 27.2036ZM32.5576 27.2075L32.4539 29.2048C32.505 29.2075 32.5423 29.2097 32.5741 29.2122L32.7295 27.2183L32.8849 25.2243C32.8022 25.2179 32.7249 25.2135 32.6613 25.2102L32.5576 27.2075ZM32.7295 27.2183L32.5763 29.2124C32.597 29.214 32.6196 29.2162 32.6732 29.2214L32.8682 27.231L33.0632 25.2405C33.0242 25.2367 32.9545 25.2297 32.8827 25.2241L32.7295 27.2183ZM32.8682 27.231L32.671 29.2212C32.701 29.2242 32.7304 29.2274 32.7592 29.2308L32.9941 27.2446L33.2291 25.2585C33.174 25.252 33.1194 25.2461 33.0653 25.2407L32.8682 27.231ZM32.9941 27.2446L32.7612 29.231C32.8931 29.2465 33.0179 29.2659 33.1361 29.2896L33.5293 27.3286L33.9225 25.3676C33.6853 25.3201 33.4525 25.2847 33.2271 25.2582L32.9941 27.2446ZM33.5293 27.3286L33.1358 29.2895C34.0932 29.4816 35.0017 29.9751 35.7532 30.7335L37.1738 29.3257L38.5944 27.9179C37.3175 26.6294 35.706 25.7255 33.9227 25.3677L33.5293 27.3286ZM37.1738 29.3257L35.7532 30.7334C35.7426 30.7228 35.7381 30.7175 35.7529 30.7336C35.7565 30.7376 35.7709 30.7533 35.7809 30.764C35.793 30.7772 35.8093 30.7948 35.828 30.8144L37.2754 29.4341L38.7227 28.0538C38.7244 28.0555 38.7238 28.055 38.7191 28.0499C38.7123 28.0425 38.71 28.0399 38.6969 28.0257C38.6781 28.0053 38.6399 27.9638 38.5945 27.9179L37.1738 29.3257ZM37.2754 29.4341L35.8277 30.814C35.8435 30.8305 35.8497 30.8378 35.8987 30.8911L37.3711 29.5376L38.8435 28.1841C38.8289 28.1681 38.7721 28.1056 38.7231 28.0542L37.2754 29.4341ZM37.3711 29.5376L35.899 30.8915C35.9625 30.9606 36.0244 31.0312 36.0847 31.1034L37.6201 29.8218L39.1555 28.5401C39.0542 28.4188 38.9501 28.3 38.8432 28.1837L37.3711 29.5376ZM37.6201 29.8218L36.0845 31.1031C36.0946 31.1153 36.104 31.1264 36.1114 31.1352C36.1151 31.1395 36.1188 31.1439 36.1217 31.1474C36.1249 31.1511 36.1275 31.1541 36.1299 31.157C36.1402 31.1692 36.142 31.1715 36.1409 31.1702L37.6953 29.9116L39.2497 28.6531C39.224 28.6214 39.2007 28.5937 39.1858 28.5761C39.1669 28.5536 39.1632 28.5494 39.1558 28.5405L37.6201 29.8218ZM37.6953 29.9116L36.1412 31.1705C36.2521 31.3074 36.36 31.4545 36.4658 31.6123L38.127 30.4985L39.7881 29.3847C39.6226 29.1379 39.4438 28.8927 39.2494 28.6527L37.6953 29.9116ZM38.127 30.4985L36.4656 31.612C36.4755 31.6268 36.4842 31.6395 36.4903 31.6483C36.4958 31.6563 36.5017 31.6648 36.5032 31.667C36.5059 31.6708 36.5054 31.6702 36.5041 31.6682C36.5025 31.6659 36.4985 31.66 36.4931 31.6518L38.1631 30.5513L39.8331 29.4508C39.8119 29.4186 39.7928 29.3912 39.7869 29.3828C39.7845 29.3793 39.7841 29.3787 39.7827 29.3768C39.7818 29.3754 39.7815 29.375 39.7816 29.3751C39.7817 29.3752 39.7843 29.3791 39.7883 29.3851L38.127 30.4985ZM38.1631 30.5513L36.493 31.6516C36.4879 31.6439 36.4842 31.6381 36.4826 31.6356C36.4812 31.6335 36.4806 31.6325 36.4827 31.6357C36.4837 31.6374 36.4884 31.6448 36.4929 31.652C36.4978 31.6598 36.505 31.6711 36.5136 31.6843L38.1904 30.5942L39.8673 29.5042C39.8712 29.5102 39.8738 29.5144 39.8743 29.5151C39.8745 29.5155 39.8745 29.5154 39.8739 29.5144C39.873 29.5131 39.8726 29.5125 39.8709 29.5098C39.8684 29.5058 39.8633 29.4976 39.8574 29.4883C39.8512 29.4787 39.843 29.4658 39.8332 29.4509L38.1631 30.5513ZM38.1904 30.5942L36.5139 31.6847C36.6863 31.9498 36.8406 32.2314 36.9754 32.5279L38.7959 31.6997L40.6164 30.8715C40.4008 30.3976 40.1509 29.9402 39.867 29.5038L38.1904 30.5942ZM38.7959 31.6997L36.9753 32.5277C36.9815 32.5413 36.987 32.553 36.9909 32.5614C36.9944 32.5689 36.9983 32.5771 36.9994 32.5795C37.0013 32.5835 37.0013 32.5835 37.0007 32.5823C37.0001 32.5808 36.9979 32.5762 36.995 32.5696L38.8213 31.7544L40.6476 30.9392C40.6343 30.9093 40.6221 30.8836 40.6178 30.8745C40.6147 30.8678 40.6143 30.867 40.6136 30.8654C40.6132 30.8647 40.6145 30.8673 40.6165 30.8718L38.7959 31.6997ZM38.8213 31.7544L36.9951 32.5698C37.0704 32.7386 37.1327 32.8891 37.1837 33.0307L39.0654 32.353L40.9471 31.6754C40.8515 31.4099 40.7473 31.1626 40.6475 30.939L38.8213 31.7544ZM39.0654 32.353V34.353H39.9619V32.353V30.353H39.0654V32.353ZM39.9619 32.353L39.9615 34.353C40.7402 34.3532 41.5171 34.7021 42.1108 35.3738L43.6094 34.0493L45.1079 32.7248C43.814 31.2608 41.9731 30.3534 39.9623 30.353L39.9619 32.353ZM43.6094 34.0493L42.1107 35.3737C42.7073 36.0488 43.0605 36.9891 43.0605 37.9918L45.0605 37.9917L47.0605 37.9916C47.0604 36.078 46.3922 34.1782 45.1081 32.7249L43.6094 34.0493ZM45.0605 37.9917L43.0605 37.9916C43.0605 38.9941 42.7073 39.9345 42.1106 40.6098L43.6094 41.9341L45.1082 43.2583C46.392 41.8053 47.0605 39.9056 47.0605 37.9918L45.0605 37.9917ZM43.6094 41.9341L42.1108 40.6096C41.5171 41.2813 40.7402 41.6302 39.9615 41.6304L39.9619 43.6304L39.9623 45.6304C41.9731 45.63 43.814 44.7226 45.1079 43.2586L43.6094 41.9341ZM39.9619 43.6304V41.6304H24.4736V43.6304V45.6304H39.9619V43.6304ZM24.4736 43.6304L24.474 41.6304C23.6952 41.6302 22.9185 41.2815 22.3248 40.6097L20.8262 41.9341L19.3275 43.2585C20.6216 44.7229 22.4624 45.63 24.4733 45.6304L24.4736 43.6304ZM20.8262 41.9341L22.325 40.6098C21.7282 39.9344 21.375 38.9941 21.375 37.9917H19.375H17.375C17.375 39.9056 18.0436 41.8053 19.3274 43.2583L20.8262 41.9341ZM19.375 37.9917L21.375 37.9919C21.3751 36.9891 21.7283 36.0488 22.3248 35.3737L20.8262 34.0493L19.3275 32.7249C18.0433 34.1782 17.3752 36.078 17.375 37.9915L19.375 37.9917ZM20.8262 34.0493L22.3248 35.3738C22.9185 34.702 23.6953 34.3532 24.474 34.353L24.4736 32.353L24.4733 30.353C22.4624 30.3534 20.6216 31.2607 19.3276 32.7248L20.8262 34.0493ZM24.4736 32.353V34.353H25.3701V32.353V30.353H24.4736V32.353ZM25.3701 32.353L27.2518 33.0307C27.3021 32.891 27.3644 32.7414 27.4413 32.5691L25.6152 31.7534L23.7891 30.9377C23.6905 31.1585 23.585 31.4071 23.4884 31.6753L25.3701 32.353ZM25.6152 31.7534L27.4414 32.569C27.4489 32.5522 27.4549 32.5381 27.4588 32.529C27.4608 32.5243 27.4625 32.5203 27.4636 32.5176C27.4647 32.5151 27.4657 32.5126 27.4659 32.5121C27.4664 32.511 27.4662 32.5115 27.4658 32.5123C27.4654 32.5133 27.4645 32.5155 27.4632 32.5184C27.4608 32.5241 27.4563 32.5346 27.4503 32.5479L25.627 31.7261L23.8036 30.9042C23.7956 30.9221 23.7891 30.9371 23.7847 30.9473C23.7806 30.957 23.777 30.9655 23.7762 30.9674C23.7746 30.9714 23.776 30.968 23.7776 30.9642C23.7795 30.9596 23.7836 30.9501 23.7891 30.9378L25.6152 31.7534ZM25.627 31.7261L27.4502 32.5481C27.6378 32.132 27.865 31.7433 28.1273 31.3876L26.5176 30.2007L24.9078 29.0138C24.4744 29.6016 24.105 30.2356 23.8037 30.9041L25.627 31.7261ZM26.5176 30.2007L28.1275 31.3873C28.1865 31.3073 28.1806 31.314 28.1977 31.2917L26.6113 30.0737L25.025 28.8558C24.9781 28.9168 24.9111 29.0093 24.9077 29.014L26.5176 30.2007ZM26.6113 30.0737L28.1975 31.2919C28.2313 31.248 28.2638 31.2066 28.2956 31.1674L26.7422 29.9077L25.1887 28.648C25.1318 28.7183 25.0773 28.7876 25.0251 28.8555L26.6113 30.0737ZM26.7422 29.9077L28.2958 31.1672C28.2915 31.1725 28.29 31.1742 28.2988 31.1638C28.3009 31.1613 28.3028 31.159 28.3057 31.1556C28.3084 31.1524 28.3117 31.1486 28.3152 31.1444C28.3221 31.1363 28.3312 31.1254 28.3413 31.1132L26.8027 29.8354L25.2641 28.5577C25.2642 28.5576 25.2632 28.5587 25.26 28.5626C25.2552 28.5683 25.2541 28.5695 25.2459 28.5792C25.2344 28.5928 25.2127 28.6185 25.1885 28.6483L26.7422 29.9077ZM26.8027 29.8354L28.3411 31.1135C28.461 30.9691 28.5731 30.8437 28.6823 30.7335L27.2617 29.3257L25.8411 27.9179C25.6286 28.1324 25.4371 28.3494 25.2643 28.5574L26.8027 29.8354ZM27.2617 29.3257L28.6823 30.7335C29.4339 29.9751 30.3422 29.4816 31.2997 29.2895L30.9062 27.3286L30.5128 25.3677C28.7295 25.7255 27.118 26.6293 25.8411 27.9179L27.2617 29.3257ZM30.9062 27.3286L31.2995 29.2896C31.5455 29.2402 31.7953 29.2114 32.0474 29.2023L31.9756 27.2036L31.9037 25.2049C31.4415 25.2215 30.9765 25.2747 30.513 25.3677L30.9062 27.3286ZM31.9756 27.2036L32.0497 29.2022C32.0596 29.2019 32.0645 29.2017 32.0688 29.2016L32.0029 27.2026L31.9371 25.2037C31.9231 25.2042 31.9098 25.2047 31.9015 25.205L31.9756 27.2036ZM32.0029 27.2026L32.0665 29.2016C32.1255 29.1998 32.1674 29.1988 32.2029 29.1987L32.1982 27.1987L32.1936 25.1987C32.0989 25.199 32.0107 25.2014 31.9393 25.2036L32.0029 27.2026ZM32.1982 27.1987V29.1987H32.2363V27.1987V25.1987H32.1982V27.1987ZM32.2363 27.1987L32.2318 29.1987C32.2317 29.1987 32.2344 29.1987 32.244 29.1989C32.2489 29.199 32.2535 29.199 32.2609 29.1991C32.2675 29.1993 32.276 29.1994 32.285 29.1995L32.3125 27.1997L32.34 25.1999C32.3383 25.1999 32.2811 25.1988 32.2409 25.1987L32.2363 27.1987Z" fill="#F9A825"/>
<path d="M72.8369 25.2573C78.7934 25.2574 83.5291 29.943 83.5293 35.6099C83.5293 41.2769 78.7935 45.9633 72.8369 45.9634C66.8803 45.9634 62.1445 41.2769 62.1445 35.6099C62.1448 29.943 66.8804 25.2573 72.8369 25.2573Z" fill="#0B132B" stroke="#F9A825" stroke-width="4"/>
<path d="M30.8652 106.433L32.1178 107.992C32.818 107.429 33.0574 106.469 32.7031 105.644C32.3488 104.818 31.4877 104.33 30.5976 104.451L30.8652 106.433ZM26.8105 114.687H24.8105V114.687L26.8105 114.687ZM38.3945 125.552L38.3945 127.552H38.3945V125.552ZM44.9141 123.667L46.7287 124.508C47.1024 123.701 46.899 122.745 46.2295 122.16C45.5599 121.576 44.5848 121.503 43.8361 121.982L44.9141 123.667ZM32.7686 131.14V133.14H32.7686L32.7686 131.14ZM19.5293 118.722L17.5293 118.722V118.722H19.5293ZM30.8652 106.433L29.6127 104.873C26.7024 107.211 24.8105 110.724 24.8105 114.687H26.8105H28.8105C28.8105 112.042 30.0667 109.639 32.1178 107.992L30.8652 106.433ZM26.8105 114.687L24.8105 114.687C24.8107 121.91 31.0151 127.552 38.3945 127.552L38.3945 125.552L38.3946 123.552C32.9791 123.552 28.8107 119.464 28.8105 114.686L26.8105 114.687ZM38.3945 125.552V127.552C41.1995 127.552 43.8172 126.743 45.992 125.352L44.9141 123.667L43.8361 121.982C42.2964 122.968 40.4254 123.552 38.3945 123.552V125.552ZM44.9141 123.667L43.0994 122.826C41.4002 126.493 37.4531 129.14 32.7685 129.14L32.7686 131.14L32.7686 133.14C38.9589 133.139 44.3527 129.635 46.7287 124.508L44.9141 123.667ZM32.7686 131.14V129.14C26.4389 129.14 21.5293 124.356 21.5293 118.722H19.5293H17.5293C17.5293 126.803 24.4749 133.14 32.7686 133.14V131.14ZM19.5293 118.722L21.5293 118.722C21.5294 113.581 25.6024 109.161 31.1329 108.415L30.8652 106.433L30.5976 104.451C23.3083 105.435 17.5295 111.359 17.5293 118.722L19.5293 118.722Z" fill="#F9A825"/>
</svg>
